<?xml version="1.0" encoding="UTF-8"?>
<svg width="266px" height="292px" viewBox="0 0 266 292" version="1.1" xmlns="http://www.w3.org/2000/svg" xmlns:xlink="http://www.w3.org/1999/xlink">
    <!-- Generator: Sketch 49.2 (51160) - http://www.bohemiancoding.com/sketch -->
    <title>Page 1</title>
    <desc>Created with Sketch.</desc>
    <defs></defs>
    <g id="Page-1" stroke="none" stroke-width="1" fill="none" fill-rule="evenodd">
        <g id="1440-copy-2" transform="translate(-376.000000, -1509.000000)">
            <g id="Page-1" transform="translate(377.000000, 1510.000000)">
                <path d="M263.7203,288.7142 L220.8863,287.7042 L205.3773,269.1552 L205.0323,288.0372 L185.6403,287.8702 L117.1683,200.5172 L75.8543,255.4872 C75.8543,255.4872 72.9923,261.2232 83.1103,260.8902 C93.2283,260.5582 99.2953,263.9302 99.2953,263.9302 L102.3353,266.7922 L104.5213,276.2332 L103.8563,289.0582 L40.7753,289.3912 L40.4433,271.5192 L22.7373,289.2252 L0.5413,289.5812 L94.6163,167.2182 C94.6163,167.2182 88,144 98.0253,136.2002 L110.4233,119.7292 L41.2853,117.8772 C41.2853,117.8772 15.8133,111.9752 28.2933,87.5242 C28.2933,87.5242 33.8643,79.7692 47.8653,79.7692 C61.8533,79.7692 143.9833,77.4062 143.9833,77.4062 L71.6383,59.3562 L35.2173,48.5612 C35.2173,48.5612 20.2073,41.1512 25.2663,24.4542 C30.3243,7.7582 59.8343,13.9922 59.8343,13.9922 L173.3263,41.3172 L230.8373,0.6682 L222.7393,45.8652 C222.7393,45.8652 223.2493,56.8262 215.4943,67.2882 C207.7403,77.7382 145.1703,162.0652 145.1703,162.0652 L197.6113,234.0762 C197.6113,234.0762 215.1513,258.0292 239.7803,258.1952 C264.3983,258.3612 263.7203,270.8422 263.7203,270.8422 L263.7203,288.7142 Z" id="Fill-1" fill="#2222FE"></path>
                <path d="M263.7203,270.8422 L263.7203,288.7142 L220.8863,287.7042 L205.3773,269.1552 L205.0323,288.0372 L185.6403,287.8702 L117.1683,200.5172 L75.8543,255.4872 C75.8543,255.4872 72.9923,261.2232 83.1103,260.8902 C93.2283,260.5582 99.2953,263.9302 99.2953,263.9302 L102.3353,266.7922 L104.5213,276.2332 L103.8563,289.0582 L40.7753,289.3912 L40.4433,271.5192 L22.7373,289.2252 L0.5413,289.5812 L94.6163,167.2182 C94.6163,167.2182 87,148 98.0253,136.2002 L110.4233,119.7292 L41.2853,117.8772 C41.2853,117.8772 15.8133,111.9752 28.2933,87.5242 C28.2933,87.5242 33.8643,79.7692 47.8653,79.7692 C61.8533,79.7692 143.9833,77.4062 143.9833,77.4062 L71.6383,59.3562 L35.2173,48.5612 C35.2173,48.5612 20.2073,41.1512 25.2663,24.4542 C30.3243,7.7582 59.8343,13.9922 59.8343,13.9922 L173.3263,41.3172 L230.8373,0.6682 L222.7393,45.8652 C222.7393,45.8652 223.2493,56.8262 215.4943,67.2882 C207.7403,77.7382 145.1703,162.0652 145.1703,162.0652 L197.6113,234.0762 C197.6113,234.0762 215.1513,258.0292 239.7803,258.1952 C264.3983,258.3612 263.7203,270.8422 263.7203,270.8422 Z" id="Stroke-3" stroke="#000000" stroke-width="1.5"></path>
                <path d="M93.7477,167.1796 L117.3147,200.6416" id="Stroke-5" stroke="#000000" stroke-width="1.5"></path>
                <polyline id="Stroke-7" stroke="#000000" stroke-width="1.5" points="109.943 119.9799 145.223 77.3109 161.045 80.4919"></polyline>
                <path d="M212.9888,45.0946 C212.9888,45.0946 219.5788,49.2126 222.7088,48.3886" id="Stroke-9" stroke="#000000" stroke-width="2"></path>
                <path d="M218.5894,34.0951 C218.5894,35.7541 217.2444,37.0991 215.5854,37.0991 C213.9274,37.0991 212.5814,35.7541 212.5814,34.0951 C212.5814,32.4361 213.9274,31.0911 215.5854,31.0911 C217.2444,31.0911 218.5894,32.4361 218.5894,34.0951" id="Fill-11" fill="#000000"></path>
            </g>
        </g>
    </g>
</svg>