<?xml version="1.0" encoding="UTF-8"?>
<svg width="613px" height="426px" viewBox="0 0 613 426" version="1.1" xmlns="http://www.w3.org/2000/svg" xmlns:xlink="http://www.w3.org/1999/xlink">
    <!-- Generator: Sketch 49.2 (51160) - http://www.bohemiancoding.com/sketch -->
    <title>Group 7</title>
    <desc>Created with Sketch.</desc>
    <defs></defs>
    <g id="Page-1" stroke="none" stroke-width="1" fill="none" fill-rule="evenodd">
        <g id="1440-copy-2" transform="translate(-71.000000, -2486.000000)">
            <g id="Group-7" transform="translate(71.000000, 2486.000000)">
                <polygon id="Page-1" fill="#FFD400" points="0 359 613 359 613 254 0 254"></polygon>
                <polygon id="Page-1" fill="#FF6D00" points="64 419 321 419 321 0 64 0"></polygon>
                <g id="Page-1" transform="translate(167.000000, 122.000000)">
                    <path d="M357.5704,45.6487042 L276.043428,78.5704516 L175.83354,121.206273 L46.1840075,221.051683 C46.1840075,221.051683 7.68506667,209.178336 2.02398255,173.019273 C-3.63710156,136.858083 12.7807115,113.651473 12.7807115,113.651473 C12.7807115,113.651473 132.995104,-85.8447905 357.5704,45.6487042" id="Fill-1" fill="#2222FE"></path>
                    <path d="M357.5704,45.6487042 L276.043428,78.5704516 L175.83354,121.206273 L46.1840075,221.051683 C46.1840075,221.051683 7.68506667,209.178336 2.02398255,173.019273 C-3.63710156,136.858083 12.7807115,113.651473 12.7807115,113.651473 C12.7807115,113.651473 132.995104,-85.8447905 357.5704,45.6487042 Z" id="Stroke-3" stroke="#000000" stroke-width="1.5"></path>
                    <path d="M195.188292,248.160615 C208.2157,253.879341 222.367295,252.469594 230.699438,244.726615 C237.799214,238.127594 238.144946,229.279994 238.161675,228.536846 C238.359077,219.912509 233.306927,212.089794 226.324254,207.93072 C215.495033,201.481604 202.421899,205.169699 194.930665,210.629015 C192.86631,212.133383 186.349818,216.882509 184.895513,225.347373 C182.647139,238.428467 194.65631,247.760867 195.188292,248.160615" id="Fill-5" fill="#2222FE"></path>
                    <path d="M195.188292,248.160615 C208.2157,253.879341 222.367295,252.469594 230.699438,244.726615 C237.799214,238.127594 238.144946,229.279994 238.161675,228.536846 C238.359077,219.912509 233.306927,212.089794 226.324254,207.93072 C215.495033,201.481604 202.421899,205.169699 194.930665,210.629015 C192.86631,212.133383 186.349818,216.882509 184.895513,225.347373 C182.647139,238.428467 194.65631,247.760867 195.188292,248.160615 Z" id="Stroke-7" stroke="#000000" stroke-width="1.5"></path>
                    <path d="M271.730922,167.073987 C300.353078,144.851861 302.729707,110.309861 287.93795,89.2912295 C268.54015,61.7256716 232.155751,73.3821347 230.31891,73.6213453 L38.6829595,226.081377 L58.8023364,252.314798 L91.2163925,229.939577 L69.9795202,269.89624 C69.9795202,269.89624 82.2741994,294.935735 126.425302,300.263219 C170.57529,305.590703 213.608897,300.263219 213.608897,300.263219 C213.608897,300.263219 219.197489,261.37184 183.988579,255.511714 C148.77967,249.651587 140.396224,247.519956 140.396224,247.519956 C140.396224,247.519956 158.209234,253.040935 165.358081,245.957114 C172.506928,238.873293 271.730922,167.073987 271.730922,167.073987" id="Fill-9" fill="#2222FE"></path>
                    <path d="M271.730922,167.073987 C300.353078,144.851861 302.729707,110.309861 287.93795,89.2912295 C268.54015,61.7256716 232.155751,73.3821347 230.31891,73.6213453 L38.6829595,226.081377 L58.8023364,252.314798 L91.2163925,229.939577 L69.9795202,269.89624 C69.9795202,269.89624 82.2741994,294.935735 126.425302,300.263219 C170.57529,305.590703 213.608897,300.263219 213.608897,300.263219 C213.608897,300.263219 219.197489,261.37184 183.988579,255.511714 C148.77967,249.651587 140.396224,247.519956 140.396224,247.519956 C140.396224,247.519956 158.209234,253.040935 165.358081,245.957114 C172.506928,238.873293 271.730922,167.073987 271.730922,167.073987 Z" id="Stroke-11" stroke="#000000" stroke-width="1.5"></path>
                    <g id="Group-16" transform="translate(173.981308, 72.723189)">
                        <path d="M0.271790031,25.8788579 C0.136842991,40.0688263 1.91345981,68.6114263 19.1632604,99.0772789 C27.399491,113.621279 37.0967184,133.382195 59.3841701,144.971679 C64.4697776,147.614689 85.8114847,158.710868 98.3872106,150.200289 C103.530812,146.717384 105.623049,141.027363 106.310052,139.161521 C109.730569,129.857826 106.081422,120.879458 103.872083,115.924079 C91.7614224,88.7593316 70.5669302,73.0150263 60.6031545,50.8588158 C55.9011981,40.4026579 51.8159832,24.3277105 56.3372667,0.897836842" id="Fill-13" fill="#2222FE"></path>
                        <path d="M0.271790031,25.8788579 C0.136842991,40.0688263 1.91345981,68.6114263 19.1632604,99.0772789 C27.399491,113.621279 37.0967184,133.382195 59.3841701,144.971679 C64.4697776,147.614689 85.8114847,158.710868 98.3872106,150.200289 C103.530812,146.717384 105.623049,141.027363 106.310052,139.161521 C109.730569,129.857826 106.081422,120.879458 103.872083,115.924079 C91.7614224,88.7593316 70.5669302,73.0150263 60.6031545,50.8588158 C55.9011981,40.4026579 51.8159832,24.3277105 56.3372667,0.897836842" id="Stroke-15" stroke="#000000" stroke-width="1.5"></path>
                    </g>
                    <path d="M285.172986,74.8835263 L276.548643,55.1513158" id="Stroke-17" stroke="#1C1C1B" stroke-width="5"></path>
                    <path d="M290.50529,51.7400674 C290.50529,53.6239832 292.107925,55.1517411 294.083059,55.1517411 C296.059308,55.1517411 297.661944,53.6239832 297.661944,51.7400674 C297.661944,49.8572147 296.059308,48.3294568 294.083059,48.3294568 C292.107925,48.3294568 290.50529,49.8572147 290.50529,51.7400674" id="Fill-19" fill="#1C1C1B"></path>
                    <path d="M290.50529,51.7400674 C290.50529,53.6239832 292.107925,55.1517411 294.083059,55.1517411 C296.059308,55.1517411 297.661944,53.6239832 297.661944,51.7400674 C297.661944,49.8572147 296.059308,48.3294568 294.083059,48.3294568 C292.107925,48.3294568 290.50529,49.8572147 290.50529,51.7400674 Z" id="Stroke-21" stroke="#1C1C1B" stroke-width="3"></path>
                    <path d="M222.652802,78.8536768 C223.290734,77.7586242 223.928665,76.6625084 224.566597,75.5674558 C222.868049,74.8849084 221.1695,74.2023611 219.470952,73.5187505 C219.27355,74.5106768 219.077264,75.50154 218.880977,76.4924032 C218.312192,79.3533611 222.280304,81.2521611 223.976622,78.5400453 C224.665855,77.4386137 225.355089,76.3361189 226.045438,75.2336242 C224.313432,74.7870979 222.581426,74.3395084 220.849419,73.8919189 C220.72451,74.7870979 220.598485,75.68334 220.47246,76.5774558 C220.0955,79.2629926 224.429419,80.0922558 225.668479,77.9191611 C226.113469,77.13774 226.557345,76.3563189 227.002335,75.5759611 C225.303787,74.8923505 223.605239,74.2108663 221.90669,73.5272558 C221.808547,74.0131189 221.709288,74.4989821 221.61003,74.9837821 C220.934179,78.3072137 226.169232,79.7605505 226.987837,76.3977821 C227.52651,74.1842874 228.509058,72.2280768 230.102771,70.5259611 C232.487207,67.9807611 228.555899,64.20974 226.16031,66.7676979 C223.937588,69.1396032 222.366179,71.8772347 221.61003,74.9837821 C223.40226,75.4558242 225.195606,75.9268032 226.987837,76.3977821 C227.087095,75.9119189 227.185239,75.4260558 227.283382,74.9401926 C227.855513,72.1313295 223.782566,70.0943189 222.187737,72.8936137 C221.742746,73.6739716 221.297756,74.4543295 220.852765,75.2368137 C222.584771,75.68334 224.316778,76.1298663 226.048784,76.5774558 C226.174809,75.68334 226.300834,74.7870979 226.425743,73.8919189 C226.81274,71.1415295 222.529008,70.4738663 221.23084,72.5502137 C220.540491,73.6527084 219.851257,74.7552032 219.162024,75.8576979 C220.860572,76.5402453 222.55912,77.2227926 224.257669,77.90534 C224.453955,76.9144768 224.651357,75.9236137 224.847644,74.9327505 C225.407507,72.1153821 221.374709,70.0996347 219.751999,72.8840453 C219.114067,73.9801611 218.475021,75.0752137 217.838204,76.1713295 C216.09393,79.1651821 220.908528,81.8485926 222.652802,78.8536768" id="Fill-23" fill="#2222FE"></path>
                    <path d="M226.726642,65.1956063 C225.760822,65.6346905 224.848536,66.30448 224.135882,67.0646379 C223.394231,67.8535011 222.910206,68.8029011 222.910206,69.8830695 C222.910206,70.8611747 223.366349,72.0295853 224.135882,72.7036274 C224.932181,73.3999958 225.979414,73.9177537 227.092449,73.8699116 C228.166449,73.8241958 229.309595,73.4914274 230.050131,72.7036274 C230.296604,72.4399642 230.559807,72.2060695 230.852006,71.9902484 L230.00552,72.6132589 C230.304411,72.4070063 230.614455,72.2315853 230.947919,72.0806168 C231.849053,71.6713011 232.614125,70.5826274 232.870636,69.6970168 C233.146106,68.7433642 233.022312,67.4728905 232.449065,66.6255537 C231.872474,65.7739642 231.01595,65.0255011 229.949757,64.7937326 C228.799919,64.5438905 227.789489,64.7118695 226.726642,65.1956063" id="Fill-25" fill="#2222FE"></path>
                </g>
            </g>
        </g>
    </g>
</svg>