<?xml version="1.0" encoding="UTF-8"?>
<svg width="953px" height="389px" viewBox="0 0 953 389" version="1.1" xmlns="http://www.w3.org/2000/svg" xmlns:xlink="http://www.w3.org/1999/xlink">
    <!-- Generator: Sketch 49.2 (51160) - http://www.bohemiancoding.com/sketch -->
    <title>Group 14</title>
    <desc>Created with Sketch.</desc>
    <defs>
        <polygon id="path-1" points="0 389 953 389 953 0 0 0"></polygon>
    </defs>
    <g id="Page-1" stroke="none" stroke-width="1" fill="none" fill-rule="evenodd">
        <g id="Group-14">
            <g id="Page-1-Copy-5">
                <path d="M424.850131,342.048252 C419.87849,346.161225 414.28774,348.198931 408.068499,348.198931 C399.879363,348.198931 394.147906,345.644756 390.902269,340.555186 C387.61911,335.437446 385.583551,329.944091 384.758072,324 L344,324 C344.272033,334.75195 346.241928,344.161081 349.937827,352.246172 C353.596204,360.303092 358.436518,367.045363 364.374346,372.407252 C376.25938,383.469084 390.977312,389 408.518761,389 C417.842932,389 426.48233,387.309737 434.390052,383.882259 C442.335297,380.492343 449.098604,375.825339 454.764398,369.881248 C460.430192,363.937157 464.885908,357.054031 468.131545,349.278821 C471.377182,341.494221 473,333.052297 473,324 L432.166885,324 C432.176265,324.291101 432.27945,324.52586 432.27945,324.826351 C432.27945,332.197775 429.79363,337.935279 424.850131,342.048252 Z" id="Fill-1" fill="#FFFFFF"></path>
                <mask id="mask-2" fill="white">
                    <use xlink:href="#path-1"></use>
                </mask>
                <g id="Clip-4"></g>
                <polygon id="Fill-5" fill="#FFFFFF" mask="url(#mask-2)" points="270 127 313 127 313 84 270 84"></polygon>
                <polygon id="Fill-6" fill="#FFFFFF" mask="url(#mask-2)" points="745 47 788 47 788 4 745 4"></polygon>
                <path d="M0,302 L0,86.5639324 L43.4633464,86.5639324 L43.4633464,109.517232 C52.2709383,101.571859 60.9372319,95.3451663 69.4716471,90.8089781 C78.0060623,86.2821816 88.5092334,84 101,84 L101,129.887817 C96.7327924,128.197312 92.3337064,127.361451 87.7839023,127.361451 C83.243518,127.361451 78.354598,128.122178 73.0794628,129.681199 C67.8420071,131.240221 63.0943854,133.869895 58.8271778,137.570222 C54.2773736,141.232983 50.5659392,146.04153 47.7211341,151.986473 C44.8857489,157.931415 43.4633464,165.303895 43.4633464,174.085128 L43.4633464,302 L0,302 Z" id="Fill-7" fill="#FFFFFF" mask="url(#mask-2)"></path>
                <path d="M196.863417,209.039813 C192.038254,208.215457 188.110796,207.765808 185.015585,207.765808 C175.683196,207.765808 167.734769,209.967213 161.086143,214.351288 C154.474922,218.735363 151.173987,226.697892 151.173987,238.285714 C151.173987,246.501171 153.137716,253.124122 157.093228,258.229508 C161.020686,263.297424 166.528478,265.845433 173.588552,265.845433 C180.919807,265.845433 186.633324,263.437939 190.729102,258.632319 C194.796826,253.845433 196.863417,247.053864 196.863417,238.285714 L196.863417,209.039813 Z M196.863417,301.442623 L196.863417,279.400468 L196.003117,279.400468 C190.355058,287.306792 184.641542,293.405152 178.853216,297.620609 C173.074242,301.854801 164.976197,304 154.549731,304 C149.453386,304 144.319637,303.203747 139.083026,301.648712 C133.88382,300.103044 128.862284,297.199063 124.074525,292.964871 C119.286767,289.030445 115.396713,283.297424 112.432417,275.812646 C109.477472,268.327869 108,258.632319 108,246.772834 C108,234.632319 108.991216,223.934426 110.954945,214.763466 C112.918674,205.592506 116.603004,197.901639 121.97053,191.653396 C127.038821,185.723653 133.949277,181.274005 142.701899,178.30445 C151.445169,175.334895 162.572967,173.854801 176.132049,173.854801 L180.779541,173.854801 C182.462737,173.854801 184.015018,174.032787 185.427033,174.30445 C186.839048,174.576112 188.531595,174.716628 190.495324,174.716628 C192.487107,174.716628 194.591102,174.857143 196.863417,175.128806 L196.863417,152.674473 C196.863417,145.330211 195.311136,139.259953 192.215925,134.4637 C189.073959,129.629977 183.435251,127.259953 175.271748,127.259953 C169.623689,127.259953 164.499292,129.086651 159.814395,132.740047 C155.166903,136.430913 152.137149,141.807963 150.725135,148.852459 L108.850949,148.852459 C109.954378,129.629977 116.462737,114.117096 128.31057,102.248244 C133.949277,96.5901639 140.700765,92.1405152 148.621139,88.8992974 C156.51346,85.6206089 165.387645,84 175.271748,84 C184.295551,84 192.76764,85.4145199 200.650609,88.2435597 C208.570983,91.0725995 215.453386,95.3161593 221.381978,100.974239 C227.020686,106.632319 231.537263,113.667447 234.94106,122.154567 C238.316804,130.632319 240,140.533958 240,151.812646 L240,301.442623 L196.863417,301.442623 Z" id="Fill-8" fill="#FFFFFF" mask="url(#mask-2)"></path>
                <path d="M344,0 L387.632597,0 L387.632597,241.703605 C387.632597,249.937206 389.135214,255.495121 392.121547,258.471235 C395.117331,261.447348 400.721431,263.381353 409,264.216918 L409,305 C399.010904,305 390.042454,304.201988 382.066298,302.652907 C374.099593,301.094438 367.238587,298.052606 361.539983,293.527411 C355.831928,289.274479 351.484734,283.256533 348.48895,275.482962 C345.493167,267.671838 344,257.40096 344,244.679718 L344,0 Z" id="Fill-9" fill="#FFFFFF" mask="url(#mask-2)"></path>
                <path d="M580,302 L580,0 L623.13087,0 L623.13087,107.731926 L623.99087,107.731926 C628.496522,100.935403 633.936957,95.3763154 640.265435,90.9890424 C646.603261,86.6017694 654.726522,84.3987583 664.607174,84.3987583 C669.935435,84.3987583 675.310435,85.3268353 680.676087,87.1642403 C686.013696,89.0203942 690.827826,92.0296135 695.034348,96.2762688 C699.259565,100.51355 702.671522,105.969517 705.186087,112.597299 C707.728696,119.26258 709,127.409033 709,136.999162 L709,302 L665.878478,302 L665.878478,153.123328 C665.878478,145.220612 664.018261,138.96781 660.372609,134.449294 C656.689565,129.930778 651.482826,127.680894 644.705652,127.680894 C636.516957,127.680894 630.908261,130.202639 627.804783,135.311749 C624.673261,140.383362 623.13087,147.732982 623.13087,157.369983 L623.13087,302 L580,302 Z" id="Fill-10" fill="#FFFFFF" mask="url(#mask-2)"></path>
                <polygon id="Fill-11" fill="#FFFFFF" mask="url(#mask-2)" points="745 299 788 299 788 84 745 84"></polygon>
                <path d="M909.872256,156.665989 C909.872256,147.878474 908.15238,140.799643 904.77806,135.40133 C901.403739,130.049958 896.038475,127.346108 888.700964,127.346108 C882.232737,127.346108 876.998333,129.805861 873.081878,134.781697 C869.128034,139.729369 867.127744,146.188568 867.127744,154.112353 L867.127744,237.800289 C867.127744,244.569305 869.193464,250.174162 873.287515,254.567919 C877.353525,258.952289 882.513151,261.130391 888.700964,261.130391 C896.898413,261.130391 902.469314,258.604919 905.43236,253.488257 C908.395406,248.409148 909.872256,242.46631 909.872256,235.659741 L909.872256,156.665989 Z M824,389 L824,86.5630252 L867.127744,86.5630252 L867.127744,106.090836 C872.493008,99.8663465 877.998478,94.6182473 883.644156,90.3934805 C889.252445,86.1405485 897.449895,84 908.15238,84 C925.949351,84 938.474531,90.8065688 945.802695,104.40093 C948.354467,109.198387 950.177161,115.188168 951.308166,122.238834 C952.41113,129.317666 953,138.790532 953,150.685597 L953,232.683627 C953,248.549974 952.579378,260.022563 951.728788,267.082618 C950.036954,281.249669 943.531338,291.858528 932.277371,298.946748 C926.631693,302.617601 918.443591,304.485887 907.741106,304.485887 C899.272589,304.485887 891.738787,302.542494 885.130353,298.740204 C878.48453,294.909749 872.773422,289.473882 867.987682,282.39505 L867.127744,282.39505 L867.127744,389 L824,389 Z" id="Fill-13" fill="#FFFFFF" mask="url(#mask-2)"></path>
                <path d="M552.330001,122.099149 C549.210404,114.300582 544.963241,107.555622 539.560325,101.873675 C534.194994,96.2293564 527.730286,91.8267881 520.222581,88.675377 C512.714876,85.5521875 504.549425,84 495.792002,84 C487.00639,84 478.775163,85.4863372 471.126513,88.4684187 C463.477862,91.441093 456.797038,95.777811 451.131023,101.450351 C445.183117,107.132298 440.513117,113.886666 437.121025,121.685232 C433.728933,129.474392 432,137.931462 432,147 L472.930617,147 C472.930617,146.858892 472.827257,146.727191 472.827257,146.586083 C472.827257,140.913543 474.65955,135.852471 478.352327,131.449903 C482.02631,127.047335 487.288281,124.864865 494.063068,124.864865 C499.73848,124.864865 504.793731,126.708676 509.181839,130.415111 C513.579343,134.083918 515.900248,139.624757 516.172743,147 L557,147 C557,138.204271 555.449598,129.897715 552.330001,122.099149" id="Fill-14" fill="#FFFFFF" mask="url(#mask-2)"></path>
                <polygon id="Fill-16" fill-opacity="0.5" fill="#FFFFFF" mask="url(#mask-2)" points="432 304 473 304 473 164 432 164"></polygon>
                <polygon id="Fill-16-Copy" fill-opacity="0.5" fill="#FFFFFF" mask="url(#mask-2)" points="272 304 313 304 313 164 272 164"></polygon>
            </g>
        </g>
    </g>
</svg>