<?xml version="1.0" encoding="UTF-8"?>
<svg width="291px" height="309px" viewBox="0 0 291 309" version="1.1" xmlns="http://www.w3.org/2000/svg" xmlns:xlink="http://www.w3.org/1999/xlink">
    <!-- Generator: Sketch 49.2 (51160) - http://www.bohemiancoding.com/sketch -->
    <title>Group 8</title>
    <desc>Created with Sketch.</desc>
    <defs>
        <polygon id="path-1" points="0 0.957142401 290.172459 0.957142401 290.172459 87.321052 0 87.321052"></polygon>
    </defs>
    <g id="Page-1" stroke="none" stroke-width="1" fill="none" fill-rule="evenodd">
        <g id="1440-copy-2" transform="translate(-767.000000, -1500.000000)">
            <g id="Group-8" transform="translate(767.000000, 1501.000000)">
                <g id="Group-6">
                    <g id="Page-1">
                        <g id="Group-3" transform="translate(0.000000, 104.051000)">
                            <mask id="mask-2" fill="white">
                                <use xlink:href="#path-1"></use>
                            </mask>
                            <g id="Clip-2"></g>
                            <path d="M183.672,1.2105 C210.098,1.9395 236.632,4.4855 261.779,12.5115 C268.087,14.5235 274.383,16.9275 279.668,20.9145 C284.953,24.9015 289.175,30.6845 290.013,37.2515 C291.551,49.3005 281.712,59.8365 271.343,66.1655 C254.373,76.5225 234.428,80.8325 214.718,83.4315 C185.15,87.3305 155.224,87.7515 125.407,87.0315 C98.677,86.3855 71.795,84.8015 45.798,78.5505 C33.014,75.4765 20.073,71.0365 10.441,62.0875 C3.694,55.8205 -2.284,45.2225 0.862,35.7655 C3.923,26.5645 13.046,19.5865 21.567,15.8425 C30.288,12.0085 39.835,10.5275 49.274,9.2235 C91.404,3.3975 133.956,0.3615 176.484,1.0545 C178.878,1.0925 181.275,1.1445 183.672,1.2105" id="Fill-1" fill="#000000" mask="url(#mask-2)"></path>
                        </g>
                        <path d="M199.095389,174.966529 C199.095389,174.966529 195.735389,195.047529 172.792389,184.739529 C169.443389,183.196529 156.820389,170.561529 156.820389,170.561529 L144.446389,155.622529 L130.017389,172.627529 C130.017389,172.627529 117.904389,188.350529 104.248389,186.283529 C90.5913893,184.229529 91.8743893,171.594529 91.8743893,171.594529 L70.4873893,184.478529 L91.1023893,223.394529 L105.542389,255.860529 C105.542389,255.860529 110.162389,273.448529 107.336389,292.484529 L91.0543893,292.484529 L85.4253893,266.726529 L81.5783893,293.078529 L41.9153893,293.375529 C41.9153893,293.375529 41.6183893,260.219529 61.7473893,251.633529 C67.0793893,248.676529 63.8253893,233.571529 63.8253893,233.571529 L53.7553893,214.629529 L42.2123893,193.314529 C42.2123893,193.314529 34.5173893,172.888529 47.8293893,164.896529 C61.1533893,156.904529 87.2073893,143.592529 87.2073893,143.592529 L117.691389,134.413529 L122.429389,129.378529 L110.886389,110.733529 L95.7933893,85.8665285 C95.7933893,85.8665285 85.1293893,56.5585285 114.437389,53.3045285 C115.328389,53.6025285 118.879389,53.3045285 118.879389,53.3045285 C118.879389,53.3045285 87.5043893,27.5475285 105.554389,6.5285285 C123.617389,-14.4784715 145.514389,21.9305285 145.514389,21.9305285 C145.514389,21.9305285 160.026389,-9.1584715 182.518389,5.0555285 C205.021389,19.2585285 173.647389,51.5235285 173.647389,51.5235285 C173.647389,51.5235285 197.623389,47.3795285 197.029389,78.4685285 C197.029389,81.7225285 189.037389,97.4095285 189.037389,97.4095285 L167.424389,127.014529 L174.035089,137.249329 C174.035089,137.249329 176.001766,140.100807 179.035089,144.249329 C182.663564,149.211809 190.078034,156.006277 195.035089,164.249329 C196.806748,167.195407 198.160181,170.767807 199.095389,174.966529 Z" id="Fill-4" fill="#FF6D00"></path>
                        <path d="M199.095389,174.966529 C199.095389,174.966529 195.735389,195.047529 172.792389,184.739529 C169.443389,183.196529 156.820389,170.561529 156.820389,170.561529 L144.446389,155.622529 L130.017389,172.627529 C130.017389,172.627529 117.904389,188.350529 104.248389,186.283529 C90.5913893,184.229529 91.8743893,171.594529 91.8743893,171.594529 L70.4873893,184.478529 L91.1023893,223.394529 L105.542389,255.860529 C105.542389,255.860529 110.162389,273.448529 107.336389,292.484529 L91.0543893,292.484529 L85.4253893,266.726529 L81.5783893,293.078529 L41.9153893,293.375529 C41.9153893,293.375529 41.6183893,260.219529 61.7473893,251.633529 C67.0793893,248.676529 63.8253893,233.571529 63.8253893,233.571529 L53.7553893,214.629529 L42.2123893,193.314529 C42.2123893,193.314529 34.5173893,172.888529 47.8293893,164.896529 C61.1533893,156.904529 87.2073893,143.592529 87.2073893,143.592529 L117.691389,134.413529 L122.429389,129.378529 L110.886389,110.733529 L95.7933893,85.8665285 C95.7933893,85.8665285 85.1293893,56.5585285 114.437389,53.3045285 C115.328389,53.6025285 118.879389,53.3045285 118.879389,53.3045285 C118.879389,53.3045285 87.5043893,27.5475285 105.554389,6.5285285 C123.617389,-14.4784715 145.514389,21.9305285 145.514389,21.9305285 C145.514389,21.9305285 160.026389,-9.1584715 182.518389,5.0555285 C205.021389,19.2585285 173.647389,51.5235285 173.647389,51.5235285 C173.647389,51.5235285 197.623389,47.3795285 197.029389,78.4685285 C197.029389,81.7225285 189.037389,97.4095285 189.037389,97.4095285 L167.424389,127.014529 L176.307389,137.072529 C176.307389,137.072529 187.779278,146.079049 199.095389,164.896529 C200.29239,166.887012 200.29239,170.243678 199.095389,174.966529 Z" id="Stroke-6" stroke="#000000" stroke-width="1.5"></path>
                        <path d="M91.8488,171.3518 C91.8488,171.3518 95.7268,156.7898 104.3348,150.4268 C104.8968,149.6778 122.3998,129.1338 122.3998,129.1338 L145.6108,157.0588" id="Stroke-8" stroke="#000000" stroke-width="1.5"></path>
                        <path d="M199.0675,174.7195 C199.0675,174.7195 198.7055,161.0865 182.4105,147.7205 C182.9605,148.2705 137.3715,88.4015 137.3715,88.4015" id="Stroke-10" stroke="#000000" stroke-width="1.5"></path>
                        <path d="M153.2999,87.8523 L144.8779,98.1043" id="Stroke-12" stroke="#000000" stroke-width="1.5"></path>
                        <path d="M135.672,66.9124 C135.672,66.9124 123.729,58.4774 118.848,53.0574" id="Stroke-14" stroke="#000000" stroke-width="1.5"></path>
                        <path d="M172.5812,51.8977 C172.5812,51.8977 162.0442,62.0347 155.8002,65.8047" id="Stroke-16" stroke="#000000" stroke-width="1.5"></path>
                        <path d="M130.4904,28.9612 C130.4904,30.7092 129.0734,32.1252 127.3264,32.1252 C125.5794,32.1252 124.1624,30.7092 124.1624,28.9612 C124.1624,27.2142 125.5794,25.7972 127.3264,25.7972 C129.0734,25.7972 130.4904,27.2142 130.4904,28.9612" id="Fill-18" fill="#000000"></path>
                        <path d="M166.4738,28.9612 C166.4738,30.7092 165.0578,32.1252 163.3108,32.1252 C161.5628,32.1252 160.1468,30.7092 160.1468,28.9612 C160.1468,27.2142 161.5628,25.7972 163.3108,25.7972 C165.0578,25.7972 166.4738,27.2142 166.4738,28.9612" id="Fill-20" fill="#000000"></path>
                    </g>
                    <g id="Group-5" transform="translate(162.175297, 225.006568) rotate(-25.000000) translate(-162.175297, -225.006568) translate(127.675297, 149.506568)">
                        <path d="M54.5685076,29.6819559 L30.4873893,41.4785285 L51.1023893,80.3945285 L65.5423893,112.860529 C65.5423893,112.860529 70.1623893,130.448529 67.3363893,149.484529 L51.0543893,149.484529 L45.4253893,123.726529 L41.5783893,150.078529 L1.91538927,150.375529 C1.91538927,150.375529 1.61838927,117.219529 21.7473893,108.633529 C27.0793893,105.676529 23.8253893,90.5715285 23.8253893,90.5715285 L13.7553893,71.6295285 L2.21238927,50.3145285 C2.21238927,50.3145285 -5.48261073,29.8885285 7.82938927,21.8965285 C21.1533893,13.9045285 47.2073893,0.5925285 47.2073893,0.5925285 C48.1578111,10.8902501 49.039933,17.6471283 49.8537549,20.8631631 C51.2600329,26.4204467 54.5685076,29.6819559 54.5685076,29.6819559 Z" id="Fill-4-Copy" fill="#FF6D00"></path>
                        <path d="M55.3202481,30.0324982 L30.4873893,41.4785285 L51.1023893,80.3945285 L65.5423893,112.860529 C65.5423893,112.860529 70.1623893,130.448529 67.3363893,149.484529 L51.0543893,149.484529 L45.4253893,123.726529 L41.5783893,150.078529 L1.91538927,150.375529 C1.91538927,150.375529 1.61838927,117.219529 21.7473893,108.633529 C27.0793893,105.676529 23.8253893,90.5715285 23.8253893,90.5715285 L13.7553893,71.6295285 L2.21238927,50.3145285 C2.21238927,50.3145285 -5.48261073,29.8885285 7.82938927,21.8965285 C21.1533893,13.9045285 47.2073893,0.5925285 47.2073893,0.5925285 C49.8601447,18.0859573 52.5644309,27.8992806 55.3202481,30.0324982 Z" id="Stroke-6-Copy" stroke="#000000" stroke-width="1.5"></path>
                    </g>
                </g>
                <path d="M137,44 C137,44 140.784415,46 146.238284,46 C147.668311,46 149.882689,45.3333333 152.881417,44" id="Path-3" stroke="#000000" stroke-width="1.5"></path>
            </g>
        </g>
    </g>
</svg>