<?xml version="1.0" encoding="UTF-8"?>
<svg width="266px" height="308px" viewBox="0 0 266 308" version="1.1" xmlns="http://www.w3.org/2000/svg" xmlns:xlink="http://www.w3.org/1999/xlink">
    <!-- Generator: Sketch 49.2 (51160) - http://www.bohemiancoding.com/sketch -->
    <title>Group 3</title>
    <desc>Created with Sketch.</desc>
    <defs></defs>
    <g id="Page-1" stroke="none" stroke-width="1" fill="none" fill-rule="evenodd">
        <g id="1440-copy-2" transform="translate(-789.000000, -1493.000000)">
            <g id="Group-3" transform="translate(790.000000, 1494.000000)">
                <path d="M69.2287963,218.401446 C69.2287963,218.401446 150.850637,193.890446 229.22909,220.593446 C229.22909,220.593446 150.502039,253.527446 70.2847827,219.637446" id="Fill-7" fill="#000000" transform="translate(149.228943, 221.540400) rotate(-18.000000) translate(-149.228943, -221.540400) "></path>
                <g id="Page-1-Copy-5" transform="translate(132.000000, 153.000000) scale(-1, 1) translate(-132.000000, -153.000000) ">
                    <path d="M263.7203,304.7142 L220.8863,303.7042 L205.3773,285.1552 L205.0323,304.0372 L185.6403,303.8702 L117.1683,216.5172 L75.8543,271.4872 C75.8543,271.4872 72.9923,277.2232 83.1103,276.8902 C93.2283,276.5582 99.2953,279.9302 99.2953,279.9302 L102.3353,282.7922 L104.5213,292.2332 L103.8563,305.0582 L40.7753,305.3912 L40.4433,287.5192 L22.7373,305.2252 L0.5413,305.5812 L94.6163,183.2182 C94.6163,183.2182 86.4353,157.6512 98.0253,152.2002 L110.4233,135.7292 L41.2853,133.8772 C41.2853,133.8772 15.8133,127.9752 28.2933,103.5242 C28.2933,103.5242 33.8643,95.7692 47.8653,95.7692 C61.8533,95.7692 143.9833,93.4062 143.9833,93.4062 L71.6383,75.3562 L35.2173,64.5612 C35.2173,64.5612 20.2073,57.1512 25.2663,40.4542 C30.3243,23.7582 59.8343,29.9922 59.8343,29.9922 L183,59 C184.7602,13.6666667 194.7602,-5 213,3 C231.2398,11 233.2398,28.6666667 219,56 C219,56 202,90 191,105 C171.090653,132.14911 156,147 154,146 L183,240 C204.4342,262.686133 223.360967,274.084533 239.7803,274.1952 C264.3983,274.3612 263.7203,286.8422 263.7203,286.8422 L263.7203,304.7142 Z" id="Fill-1" fill="#FF6D00"></path>
                    <path d="M263.7203,286.8422 L263.7203,304.7142 L220.8863,303.7042 L205.3773,285.1552 L205.0323,304.0372 L185.6403,303.8702 L117.1683,216.5172 L75.8543,271.4872 C75.8543,271.4872 72.9923,277.2232 83.1103,276.8902 C93.2283,276.5582 99.2953,279.9302 99.2953,279.9302 L102.3353,282.7922 L104.5213,292.2332 L103.8563,305.0582 L40.7753,305.3912 L40.4433,287.5192 L22.7373,305.2252 L0.5413,305.5812 L94.6163,183.2182 C94.6163,183.2182 86.4353,157.6512 98.0253,152.2002 L110.4233,135.7292 L41.2853,133.8772 C41.2853,133.8772 15.8133,127.9752 28.2933,103.5242 C28.2933,103.5242 33.8643,95.7692 47.8653,95.7692 C61.8533,95.7692 143.9833,93.4062 143.9833,93.4062 L71.6383,75.3562 L35.2173,64.5612 C35.2173,64.5612 20.2073,57.1512 25.2663,40.4542 C30.3243,23.7582 59.8343,29.9922 59.8343,29.9922 L183,59 C185.666667,12.3333333 196.333333,-6.33333333 215,3 C233.666667,12.3333333 232.666667,34 212,68 C203.177761,86.5734789 196.177761,99.2401456 191,106 C160.511775,145.804072 140,162 140,162 L179,235 C203.100867,261.019467 223.360967,274.084533 239.7803,274.1952 C264.3983,274.3612 263.7203,286.8422 263.7203,286.8422 Z" id="Stroke-3" stroke="#000000" stroke-width="1.5"></path>
                    <path d="M93.7477,183.1796 L117.3147,216.6416" id="Stroke-5" stroke="#000000" stroke-width="1.5"></path>
                    <polyline id="Stroke-7" stroke="#000000" stroke-width="1.5" points="109.943 135.9799 145.223 93.3109 161.045 96.4919"></polyline>
                    <path d="M208,57 C209.103542,59.1063805 210.103542,60.4397138 211,61 C211.896458,61.5602862 213.563125,61.8936195 216,62" id="Stroke-9" stroke="#000000" stroke-width="2"></path>
                    <path d="M218.5894,50.0951 C218.5894,51.7541 217.2444,53.0991 215.5854,53.0991 C213.9274,53.0991 212.5814,51.7541 212.5814,50.0951 C212.5814,48.4361 213.9274,47.0911 215.5854,47.0911 C217.2444,47.0911 218.5894,48.4361 218.5894,50.0951" id="Fill-11" fill="#000000"></path>
                </g>
                <path d="M114.965504,133.452784 L154.590415,121.104554 L212.876415,224.943554 C212.876415,224.943554 139.222583,210.197446 46.4265825,227.895446 L114.965504,133.452784 Z" id="Fill-17" stroke="#000000" stroke-width="1.5" fill="#FF6D00" transform="translate(129.651499, 174.500000) rotate(-18.000000) translate(-129.651499, -174.500000) "></path>
            </g>
        </g>
    </g>
</svg>